<?xml version="1.0" encoding="utf-8"?>
<!-- Generator: Adobe Illustrator 17.1.0, SVG Export Plug-In . SVG Version: 6.00 Build 0)  -->
<!DOCTYPE svg PUBLIC "-//W3C//DTD SVG 1.1//EN" "http://www.w3.org/Graphics/SVG/1.1/DTD/svg11.dtd">
<svg version="1.1" id="Layer_2" xmlns="http://www.w3.org/2000/svg" xmlns:xlink="http://www.w3.org/1999/xlink" x="0px" y="0px"
	 viewBox="300.4 240.5 204.9 34.7" enable-background="new 300.4 240.5 204.9 34.7" xml:space="preserve">
<g>
	<path fill="#C6C6C6" d="M337.5,240.7c-7.5,0.4-14.9,1.8-21.8,3.7c-5.9,1.6-12,3.6-15.2,7.6c-0.5,0.6,0.9,1,1.4,0.5
		c3-3.7,8.9-5.5,14.3-7c5.6-1.6,11.6-2.6,17.6-3.3c5.6-0.7,38.2-1.7,34.9,5.8l0,0c-7.1,5.8-18.8,7.4-28.7,11c2.4-3.3,5-6.5,7.7-9.8
		c0.5-0.6-0.9-1-1.4-0.5c-3,3.6-5.9,7.2-8.4,10.9c-0.8,0.3-1.7,0.5-2.4,0.8c-2.7,1-8,3.9-7.2,6.4c0.5,1.3,1.7,2,3,2.7
		c-0.9,1.6-2,3.1-2.9,4.8c-0.3,0.6,1.1,1.2,1.4,0.5c0.9-1.6,1.8-3.1,2.7-4.6c2.6,1.4,5.1,2.5,7.8,3.7c0.8,0.3,1.5-0.5,0.8-0.9
		c-2.3-0.9-4.5-2-6.6-3.1c-0.5-0.2-0.8-0.4-1.2-0.6c1.8-3,3.8-6,5.9-8.9c2.6-0.8,5.4-1.4,7.8-2.1c8.1-2.3,17.3-4.8,22.8-9.9
		c0.2-0.2-0.3,0.3,0,0C375.6,239.6,343.5,240.2,337.5,240.7z M331.7,268.5c-0.3-0.1-0.6-0.3-0.9-0.4c-2.7-1.5-0.3-3.4,0.9-4.5
		c1.4-1.2,3-2,4.8-2.6C334.9,263.4,333.3,265.9,331.7,268.5z"/>
	<path fill="#C6C6C6" d="M356.8,264.4c-1.4,0.2-2.6,0.6-3.6,1.3c0.3-1.3-0.2-2.3-2-2.6c-2.1-0.3-3.8,1.3-5,2.2
		c-1.7,1.4-3.3,2.8-3.3,4.7c0,0.4,0.8,0.6,1.2,0.4c3-1.2,5.1-2.8,6.5-4.9c0.2-0.1,0.2-0.3,0-0.4c0.3,0,0.8,0.1,1.1,0.1
		c0,0.6,0,1.2-0.3,1.8c0,0.1-0.2,0.2-0.2,0.3c-0.8,0.7-1.5,1.6-2,2.3c-0.3,0.5,0.6,1,1.2,0.6c0.5-0.4,1.1-1,1.7-1.9
		c0.9-0.8,1.8-1.6,3-2.2c3-1.7,3.2,2.1,3.5,3.4c0.2,0.6,1.7,0.3,1.5-0.3C359.7,268.1,359.7,263.9,356.8,264.4z M349.2,265
		c-1.1,1.6-2.6,2.9-4.5,3.9c0.8-1.6,2.6-2.8,4.1-4C348.9,264.9,349.2,265,349.2,265C349.3,265,349.3,265,349.2,265z"/>
	<path fill="#C6C6C6" d="M404,243.6c-0.3-0.4-1.2-0.2-1.4,0.2c-1.8,3.8-3.5,7.7-5.1,11.5c-1.4,0.9-2.9,1.9-4.5,2.7
		c-0.6,0.3-1.4,0.6-2,0.9c-0.3,0.1-5.9,2.1-6.6-0.2c-0.3-1-0.9-0.9-1.2-0.4c-2.4,5.5-5.1,11-12.2,14.5c-0.8,0.4,0,1.3,0.8,0.8
		c6.6-3.3,9.5-8.9,12-14.1c0.5,0.4,0.8,0.9,1.7,1c1.4,0.2,6.8-1,9.3-2.4c0.6-0.3,1.2-0.6,1.7-1c-0.6,1.5-1.2,2.9-1.8,4.4
		c-2.6,5.9-8.9,13.2-19.2,11.1c-0.9-0.2-1.2,0.8-0.3,1c8.6,1.7,15.3-2.6,18.8-7.7c2.1-3,3.2-6.4,4.5-9.7c0.2-0.2,0.2-0.4,0.3-0.6
		C403.6,252.6,407.3,248.4,404,243.6z M403.4,245.5c1.2,3-0.9,5.9-3.8,8.3C400.9,250.9,402.1,248.2,403.4,245.5z"/>
	<path fill="#C6C6C6" d="M416,265.1c-2.4,0.9-2.1,0.8-4.4,1.9c0-0.1,0-0.2,0-0.3c0-0.3-0.5-0.5-0.9-0.5c-0.6,0.1-4.7,0.9-4.2-0.6
		c0.2-0.5-0.8-0.8-1.4-0.5c-1.5,1.3-3.2,1.9-5.4,2.4c-1.1,0.3-5.9,0.9-2.9-0.6c0.8-0.4,0-1.3-0.8-0.8c-1.2,0.6-2,1.3-2.4,2.2
		c0,0.2,0,0.4,0.2,0.5c1.5,0.8,3.2,0.3,4.8,0.1c2.3-0.3,4.4-0.9,6-2c0.5,1.2,2.9,0.9,5,0.6c-0.2,0.3-0.3,0.7-0.3,1
		c-0.5,0.6,1.7,1.4,1.7,0.7c0.3-2.4,2.6-2,5.6-3.1C417.7,265.7,416.8,264.8,416,265.1z"/>
	<path fill="#C6C6C6" d="M431.2,266.5c-1.1-0.1-2.1-0.2-3.2-0.3c-0.6-0.1-4.7,0.3-3.6-0.6c0.6-0.5,0.2-1.6-0.6-1
		c-1.4,0.9-2.9,1.7-4.4,2.3c-0.8,0.3,0,1.3,0.8,0.8c1.1-0.4,2.1-0.9,3-1.6c1.1,1.2,5.7,1.2,7.5,1.4
		C431.8,267.6,432.1,266.6,431.2,266.5z"/>
	<path fill="#C6C6C6" d="M444.6,259c-1.4,0.3-2.4,0.5-3.3,1.2c-0.6,0.5,0.5,1.2,1.1,0.7c0.8-0.5,0.5-1,1.5-1.3
		S445.5,258.8,444.6,259z"/>
	<path fill="#C6C6C6" d="M504.5,266.6c-11.9,0.3-23.9,0.3-35.8,0c-11-0.3-24.5-2.8-33.4-0.3c-0.9,0.2,0,0.9,0.9,0.7
		c11.1-1.7,22.7,0.3,34,0.6c11.4,0.3,22.8,0.3,34.3,0C505.6,267.5,505.6,266.5,504.5,266.6z"/>
</g>
</svg>
